<svg xmlns="http://www.w3.org/2000/svg" viewBox="0 0 172.39 282.33"><defs><style>.cls-1,.cls-2{fill:none;}.cls-1{stroke:#063442;}.cls-1,.cls-2,.cls-3{stroke-miterlimit:10;stroke-width:10px;}.cls-2,.cls-3{stroke:#086970;}.cls-3{fill:#086970;}</style></defs><title>Asset 8</title><g id="Layer_2" data-name="Layer 2"><g id="Layer_1-2" data-name="Layer 1"><path class="cls-1" d="M83.93,97.44a19.22,19.22,0,0,0,8.47,0c8.56-2,14.32-10.23,14.95-18.09a20,20,0,0,0-11-19.46c-8-4-17.59-2.74-23.42,1.36C67.7,65,66.3,70.51,63.5,81.61c-3.13,12.39-1.19,15-5,19.45-6,7-16.92,7.5-20.93,7.7-3.37.16-15.32.75-23.92-6.79C6.61,95.79,5.74,87.59,5.2,81.61c-1.91-21.08,10.5-37.67,15-43.43C25.23,31.58,39.21,14,66,7.41a87.31,87.31,0,0,1,50.83,3.17c4,1.47,36.6,14.19,47.34,47.05,1.37,4.18,8.41,27.34-4,50.67-6.26,11.79-14.91,19-19.93,23.08a97.24,97.24,0,0,1-27.91,15.83q.26,23.08.5,46.15c-5,9-15,14.94-25.91,15.38-12.07.49-23.47-5.74-28.9-15.83q.24-28.5.5-57"/><path class="cls-2" d="M33.14,92.32a56.35,56.35,0,0,1-1.29-9.38C31.51,76.48,30.64,59.88,43,45.85,53.83,33.62,68.54,30.33,72.7,29.46a61.2,61.2,0,0,1,37,3.9,53.56,53.56,0,0,1,25.37,23.43c2.42,4.39,10.34,18.76,4.73,35.53-5.13,15.35-18.42,23.12-24.94,26.93a73.69,73.69,0,0,1-28.38,9.38L86,180.94"/><ellipse class="cls-1" cx="86.36" cy="252.49" rx="27.36" ry="24.84"/><ellipse class="cls-3" cx="86.36" cy="252.49" rx="7.33" ry="6.66"/></g></g></svg>